<svg width="64" height="64" viewBox="0 0 64 64" fill="none" xmlns="http://www.w3.org/2000/svg">
  <path d="M39.4 7.8C40.5 6.7 42.2 6.7 43.3 7.8L49.7 14.2C50.8 15.3 50.8 17 49.7 18.1L34.5 33.3L24.2 23L39.4 7.8Z" fill="#1F2933"/>
  <path d="M20.8 24.9C21.9 23.8 23.6 23.8 24.7 24.9L32.7 32.9C33.8 34 33.8 35.7 32.7 36.8L28.4 41.1L16.5 29.2L20.8 24.9Z" fill="#35C66B"/>
  <path d="M14.5 31.8L25.8 43.1L22.2 51.6C21.6 53.1 20.1 54 18.5 54H11.4C9.1 54 7.5 51.7 8.4 49.6L14.5 31.8Z" fill="#DFF8E9"/>
  <path d="M14.5 31.8L25.8 43.1" stroke="#35C66B" stroke-width="4" stroke-linecap="round"/>
  <path d="M14 54H30" stroke="#35C66B" stroke-width="4" stroke-linecap="round"/>
  <path d="M35 51H47" stroke="#9AA6B2" stroke-width="4" stroke-linecap="round"/>
  <path d="M39 43H55" stroke="#C9D3DF" stroke-width="4" stroke-linecap="round"/>
  <path d="M45 35H56" stroke="#D8E1EA" stroke-width="4" stroke-linecap="round"/>
</svg>
